M48
; DRILL file {KiCad (5.1.5-0-10_14)} date 2020 May 03, Sunday 23:47:43
; FORMAT={-:-/ absolute / inch / decimal}
; #@! TF.CreationDate,2020-05-03T23:47:43+02:00
; #@! TF.GenerationSoftware,Kicad,Pcbnew,(5.1.5-0-10_14)
; #@! TF.FileFunction,Plated,1,4,PTH
FMAT,2
INCH
T1C0.0118
T2C0.0157
T3C0.0236
T4C0.0295
T5C0.0299
T6C0.0335
T7C0.0354
T8C0.0394
T9C0.0400
T10C0.0402
T11C0.0421
T12C0.0433
T13C0.0531
T14C0.0551
T15C0.0630
T16C0.0669
T17C0.0787
T18C0.1102
T19C0.1654
%
G90
G05
T1
X7.1908Y-7.5688
X7.1908Y-7.616
X7.1908Y-7.6672
X7.1908Y-7.7105
X7.238Y-7.5688
X7.238Y-7.616
X7.238Y-7.6672
X7.238Y-7.7105
X7.1924Y-8.2921
X7.1924Y-8.3394
X7.1924Y-8.3906
X7.1924Y-8.4339
X7.2396Y-8.2921
X7.2396Y-8.3394
X7.2396Y-8.3906
X7.2396Y-8.4339
T2
X5.3775Y-8.391
X5.3957Y-6.1555
X5.4235Y-8.3915
X5.4488Y-6.1555
X5.4675Y-8.3915
X5.5039Y-6.156
X5.512Y-8.392
X5.5591Y-6.156
X5.6161Y-6.1555
X5.7835Y-7.8925
X5.813Y-8.8225
X5.813Y-8.909
X5.813Y-9.135
X5.813Y-9.2115
X5.825Y-7.7575
X5.835Y-6.625
X5.838Y-6.5455
X5.863Y-7.206
X5.9515Y-6.9125
X5.963Y-6.3365
X5.9635Y-7.554
X6.025Y-6.9725
X6.025Y-7.0
X6.025Y-7.0275
X6.0315Y-7.8565
X6.035Y-7.6075
X6.035Y-7.6375
X6.035Y-7.6675
X6.04Y-6.3975
X6.04Y-6.425
X6.04Y-6.4525
X6.052Y-7.1125
X6.052Y-7.185
X6.055Y-6.9725
X6.055Y-7.0
X6.055Y-7.0275
X6.0635Y-7.7485
X6.065Y-7.6075
X6.065Y-7.6375
X6.065Y-7.6675
X6.07Y-6.3975
X6.07Y-6.425
X6.07Y-6.4525
X6.07Y-6.535
X6.0815Y-6.607
X6.09Y-5.564
X6.1405Y-7.0625
X6.195Y-5.604
X6.2Y-10.226
X6.215Y-5.669
X6.243Y-6.9385
X6.2495Y-6.3725
X6.2505Y-7.598
X6.252Y-10.324
X6.29Y-5.559
X6.3362Y-5.5378
X6.3415Y-7.3345
X6.345Y-9.62
X6.346Y-6.7135
X6.3485Y-6.1265
X6.355Y-5.614
X6.385Y-7.815
X6.43Y-6.995
X6.43Y-7.105
X6.43Y-7.625
X6.435Y-6.625
X6.445Y-6.41
X6.4475Y-10.2025
X6.45Y-5.699
X6.48Y-5.529
X6.485Y-7.625
X6.49Y-6.995
X6.49Y-7.105
X6.495Y-6.41
X6.5Y-6.625
X6.535Y-7.625
X6.54Y-6.63
X6.545Y-6.41
X6.545Y-6.995
X6.562Y-7.13
X6.5625Y-10.2875
X6.575Y-5.999
X6.625Y-5.564
X6.665Y-5.509
X6.67Y-9.62
X6.705Y-6.995
X6.725Y-5.654
X6.73Y-5.989
X6.795Y-10.1975
X6.84Y-5.649
X6.87Y-8.825
X6.875Y-5.994
X6.875Y-10.315
X6.885Y-5.509
X6.929Y-7.7905
X6.9345Y-8.5195
X7.0295Y-7.9095
X7.03Y-9.62
X7.06Y-5.564
X7.095Y-8.79
X7.11Y-8.239
X7.113Y-7.5285
X7.12Y-9.2075
X7.1475Y-10.2
X7.1602Y-5.6288
X7.17Y-9.28
X7.1925Y-8.1935
X7.2072Y-7.4615
X7.2115Y-7.7915
X7.2175Y-8.5125
X7.2175Y-10.3175
X7.2459Y-7.4615
X7.2485Y-8.1935
X7.255Y-5.559
X7.2725Y-9.2075
X7.305Y-5.559
X7.31Y-9.28
X7.375Y-9.62
X7.4315Y-8.325
X7.4325Y-9.2075
X7.4425Y-7.612
X7.455Y-5.519
X7.4575Y-9.2725
X7.4885Y-7.7935
X7.4975Y-10.195
X7.5005Y-8.5165
X7.508Y-5.9405
X7.5225Y-10.2825
X7.58Y-6.141
X7.5825Y-9.2075
X7.606Y-5.56
X7.619Y-7.8
X7.619Y-8.529
X7.62Y-8.73
X7.62Y-9.275
X7.624Y-7.9985
X7.63Y-6.6
X7.6412Y-7.3035
X7.6485Y-7.7705
X7.6505Y-8.057
X7.6505Y-8.5005
X7.6765Y-8.5305
X7.679Y-7.9985
X7.6795Y-7.8015
X7.68Y-8.73
X7.701Y-7.2855
X7.7165Y-8.501
X7.7235Y-7.7675
X7.75Y-8.73
X7.757Y-8.53
X7.764Y-7.9985
X7.7665Y-7.802
X7.783Y-5.579
X7.787Y-8.5005
X7.7925Y-7.7705
X7.815Y-8.5305
X7.82Y-8.73
X7.821Y-7.803
X7.8265Y-7.9995
X7.913Y-5.699
X7.948Y-5.663
X7.99Y-5.725
X8.043Y-5.7055
X8.1655Y-5.683
X8.285Y-8.885
X8.326Y-6.154
X8.3359Y-8.8941
X8.384Y-6.031
X8.39Y-8.9
X8.452Y-6.187
X8.499Y-6.185
X8.604Y-6.101
X8.742Y-7.6505
X8.767Y-6.153
X8.831Y-6.034
X8.8772Y-8.3638
X8.891Y-6.396
X8.893Y-6.265
X8.92Y-8.54
X8.9268Y-8.4246
X8.941Y-6.493
X8.961Y-6.766
X8.967Y-6.209
X9.051Y-6.103
X9.0648Y-8.3956
X9.08Y-6.604
X9.08Y-6.695
X9.081Y-6.557
X9.081Y-6.648
X9.124Y-6.523
X9.248Y-6.472
X9.281Y-6.424
X9.287Y-6.167
X9.3Y-6.578
X9.361Y-6.039
X9.466Y-6.204
X9.546Y-6.278
X9.568Y-6.108
X9.5898Y-8.3956
X9.6994Y-8.3558
X9.735Y-6.166
X9.801Y-6.046
X9.821Y-6.572
X9.865Y-6.184
X9.8848Y-7.0862
X9.914Y-6.184
X9.915Y-6.591
X9.9695Y-8.8651
X9.9983Y-8.8383
X10.02Y-8.805
X10.026Y-6.112
X10.135Y-9.4675
X10.155Y-8.8514
X10.1625Y-9.9075
X10.1675Y-9.5375
X10.195Y-8.82
X10.195Y-9.9625
X10.2125Y-9.6825
X10.215Y-9.495
X10.215Y-9.7975
X10.2375Y-9.3725
X10.24Y-9.455
X10.245Y-10.0475
X10.25Y-8.79
X10.2752Y-8.7598
X10.3025Y-9.745
X10.31Y-8.74
X10.32Y-9.3725
X10.32Y-9.6675
X10.3369Y-9.7769
X10.3406Y-9.701
X10.3627Y-6.3773
X10.365Y-9.1133
X10.375Y-9.315
X10.3825Y-9.77
X10.3845Y-9.6974
X10.3875Y-9.3725
X10.3925Y-10.1325
X10.4175Y-9.8275
X10.42Y-9.133
X10.43Y-6.43
X10.4334Y-8.9804
X10.455Y-9.315
X10.46Y-6.471
X10.47Y-9.8275
X10.475Y-9.1525
X10.49Y-9.3975
X10.505Y-6.507
X10.5225Y-9.1825
X10.5375Y-9.2775
X10.5375Y-9.4
X10.5375Y-9.585
X10.55Y-6.8
X10.5575Y-9.95
X10.5575Y-10.045
X10.6075Y-9.975
X10.62Y-9.3275
X10.642Y-6.493
X10.6425Y-10.015
X10.6525Y-9.36
X10.67Y-9.4025
X10.674Y-6.461
X10.68Y-6.305
X10.6825Y-5.9275
X10.69Y-9.4425
X10.7064Y-9.4925
X10.7175Y-6.075
X10.7275Y-9.5325
X10.7705Y-6.3995
X10.7767Y-9.09
X10.7795Y-8.7195
X10.78Y-6.0825
X10.78Y-9.13
X10.8Y-6.3675
X10.8003Y-6.4291
X10.825Y-5.7175
X10.825Y-8.69
X10.825Y-9.13
X10.8625Y-6.37
X10.87Y-8.825
X10.898Y-6.1225
X10.915Y-8.855
X10.92Y-6.05
X10.92Y-8.81
X10.9275Y-6.3575
X10.9668Y-8.111
X10.9698Y-7.1806
X10.9783Y-8.8065
X10.98Y-5.925
X10.98Y-8.765
X10.9825Y-6.305
X10.995Y-10.155
X11.0347Y-7.354
X11.0431Y-8.7029
X11.0434Y-8.7866
X11.0455Y-8.7469
X11.05Y-10.2025
X11.0549Y-7.3164
X11.06Y-6.1075
X11.082Y-8.7324
X11.095Y-6.355
X11.095Y-10.24
X11.1234Y-7.4482
X11.125Y-5.7175
X11.125Y-8.7225
X11.1366Y-8.2176
X11.1375Y-10.27
X11.16Y-6.355
X11.1628Y-7.46
X11.1882Y-8.059
X11.195Y-10.2875
X11.2Y-7.32
X11.202Y-7.4796
X11.2025Y-6.0575
X11.2275Y-6.355
X11.2406Y-7.5909
X11.2436Y-7.6357
X11.2452Y-6.6752
X11.2525Y-6.105
X11.255Y-8.535
X11.2586Y-9.5032
X11.2886Y-6.5704
X11.3Y-7.32
X11.36Y-6.57
X11.415Y-6.675
X11.44Y-5.93
X11.44Y-6.08
X11.4402Y-7.9168
X11.4402Y-7.9668
X11.4448Y-7.3556
X11.4475Y-6.305
X11.4486Y-7.5122
X11.4546Y-6.7132
X11.459Y-9.3928
X11.502Y-7.4993
X11.5049Y-9.3956
X11.525Y-6.1225
X11.528Y-9.5327
X11.5348Y-7.5412
X11.5388Y-7.5918
X11.545Y-6.625
X11.5685Y-7.5645
X11.5705Y-9.5078
X11.577Y-6.5208
X11.58Y-5.7175
X11.5896Y-7.9906
X11.5912Y-7.4403
X11.6Y-6.6545
X11.6085Y-7.9174
X11.6198Y-8.1356
X11.6214Y-7.4655
X11.6282Y-7.8299
X11.6304Y-6.5866
X11.6326Y-7.7908
X11.6378Y-6.545
X11.641Y-7.8951
X11.6448Y-9.395
X11.65Y-7.12
X11.667Y-7.8498
X11.675Y-9.4578
X11.685Y-6.0475
X11.685Y-6.35
X11.688Y-10.211
X11.7022Y-7.712
X11.71Y-9.56
X11.7246Y-8.0423
X11.7289Y-6.5811
X11.74Y-5.93
X11.74Y-6.665
X11.7425Y-6.3075
X11.755Y-7.125
X11.815Y-7.568
X11.8225Y-10.0425
X11.825Y-6.53
X11.8374Y-7.8948
X11.845Y-7.13
X11.855Y-7.93
X11.86Y-8.0
X11.8625Y-6.3525
X11.88Y-5.7175
X11.8888Y-7.487
X11.9112Y-7.8548
X11.925Y-6.55
X11.945Y-7.875
X11.9625Y-6.05
X11.9707Y-10.1325
X11.975Y-8.1158
X11.995Y-9.0915
X12.0Y-6.5795
X12.0Y-7.875
X12.0006Y-7.3032
X12.0075Y-6.1375
X12.0275Y-6.04
X12.0292Y-7.5698
X12.035Y-6.305
X12.0378Y-9.0042
X12.0475Y-9.6625
X12.05Y-8.28
X12.055Y-7.875
X12.0575Y-6.0075
X12.0575Y-9.8375
X12.075Y-8.9845
X12.0775Y-6.395
X12.0792Y-7.5874
X12.0816Y-7.4403
X12.0825Y-6.25
X12.1025Y-5.885
X12.1025Y-6.0175
X12.103Y-7.3048
X12.1125Y-9.0325
X12.1186Y-8.2381
X12.12Y-8.64
X12.1242Y-8.1536
X12.1275Y-5.8495
X12.13Y-6.39
X12.1476Y-7.4403
X12.1498Y-7.5888
X12.15Y-6.76
X12.151Y-9.0192
X12.1548Y-8.6102
X12.16Y-6.72
X12.185Y-6.0675
X12.185Y-7.935
X12.185Y-8.585
X12.19Y-8.085
X12.1925Y-9.9875
X12.2Y-6.4595
X12.205Y-8.875
X12.2085Y-8.9275
X12.215Y-8.555
X12.22Y-6.73
X12.22Y-7.605
X12.235Y-6.1925
X12.235Y-8.97
X12.245Y-8.32
X12.2475Y-6.035
X12.255Y-5.88
X12.255Y-6.3025
X12.2573Y-6.7445
X12.263Y-9.705
X12.28Y-8.29
X12.285Y-6.355
X12.295Y-7.355
X12.3Y-7.395
X12.3012Y-7.5434
X12.3122Y-8.4478
X12.3145Y-6.2925
X12.32Y-6.0075
X12.32Y-8.29
X12.3225Y-6.15
X12.325Y-6.2475
X12.3382Y-7.9223
X12.34Y-8.42
X12.345Y-8.09
X12.3486Y-7.4045
X12.3487Y-7.4462
X12.35Y-7.563
X12.35Y-7.6418
X12.355Y-7.275
X12.3565Y-9.7945
X12.3625Y-5.725
X12.3635Y-9.6825
X12.365Y-8.295
X12.365Y-8.35
X12.367Y-6.3269
X12.3675Y-6.4275
X12.3705Y-9.5375
X12.3805Y-8.896
X12.395Y-8.755
X12.41Y-6.89
X12.41Y-7.175
X12.4125Y-9.8875
X12.4125Y-9.9375
X12.425Y-8.83
X12.4344Y-8.729
X12.44Y-8.69
X12.4402Y-6.9195
X12.465Y-8.59
X12.465Y-8.6294
X12.4665Y-8.889
X12.4675Y-6.1525
X12.471Y-9.072
X12.48Y-5.7825
X12.4846Y-7.65
X12.485Y-7.71
X12.49Y-7.89
X12.49Y-8.1
X12.49Y-9.585
X12.4918Y-8.2169
X12.4974Y-8.555
X12.5Y-5.9875
X12.5Y-6.25
X12.505Y-6.345
X12.525Y-8.025
X12.53Y-5.88
X12.53Y-6.825
X12.53Y-8.075
X12.5341Y-7.4258
X12.535Y-6.1175
X12.5369Y-6.2014
X12.5475Y-6.4175
X12.5492Y-8.2145
X12.5545Y-8.7058
X12.555Y-6.86
X12.555Y-8.1455
X12.555Y-8.63
X12.5559Y-7.7159
X12.56Y-7.845
X12.5611Y-8.7649
X12.5625Y-10.09
X12.5633Y-7.65
X12.585Y-8.3
X12.585Y-8.675
X12.5875Y-10.0425
X12.5879Y-8.7354
X12.5884Y-8.2394
X12.59Y-7.975
X12.5915Y-9.7095
X12.5937Y-8.1258
X12.595Y-7.875
X12.5995Y-6.33
X12.6145Y-8.6448
X12.6152Y-7.9448
X12.6155Y-7.47
X12.6185Y-8.269
X12.6259Y-7.9069
X12.63Y-9.8255
X12.6375Y-10.1425
X12.65Y-7.115
X12.65Y-7.24
X12.65Y-7.325
X12.6566Y-7.6134
X12.6727Y-7.4486
X12.6935Y-7.4152
X12.6943Y-8.4359
X12.7Y-7.615
X12.7018Y-8.3268
X12.7025Y-9.441
X12.723Y-8.9715
X12.7275Y-6.33
X12.7356Y-8.4585
X12.7375Y-9.79
X12.745Y-7.0717
X12.76Y-7.615
X12.765Y-8.295
X12.7681Y-8.5099
X12.7692Y-8.7871
X12.7758Y-8.4351
X12.78Y-8.825
X12.7822Y-7.6536
X12.785Y-7.7324
X12.7897Y-7.0717
X12.79Y-7.425
X12.7925Y-5.88
X12.795Y-8.2359
X12.8108Y-6.515
X12.82Y-7.625
X12.823Y-7.345
X12.825Y-6.0575
X12.825Y-8.825
X12.83Y-8.215
X12.835Y-6.737
X12.845Y-7.59
X12.8498Y-7.4504
X12.8586Y-7.2308
X12.86Y-8.295
X12.86Y-8.85
X12.875Y-6.165
X12.8753Y-6.722
X12.885Y-7.26
X12.885Y-7.425
X12.9Y-7.595
X12.9035Y-8.2965
X12.9108Y-7.46
X12.9108Y-8.4607
X12.935Y-5.97
X12.945Y-7.41
X12.945Y-8.015
X12.945Y-8.275
X12.945Y-8.565
X12.95Y-5.87
X12.9525Y-6.435
X12.9615Y-8.743
X12.9698Y-8.46
X12.97Y-7.445
X12.9725Y-6.0
X12.985Y-7.86
X12.99Y-7.15
X12.9975Y-9.9625
X12.9991Y-7.6009
X13.0Y-7.475
X13.005Y-8.715
X13.0125Y-6.035
X13.02Y-6.32
X13.0275Y-5.9125
X13.0355Y-8.6855
X13.04Y-7.6
X13.0625Y-6.1075
X13.0725Y-8.9125
X13.08Y-8.6445
X13.09Y-7.15
X13.0921Y-6.5154
X13.1Y-6.575
X13.1025Y-5.775
X13.1211Y-8.6363
X13.125Y-6.0525
X13.125Y-9.41
X13.1496Y-8.4496
X13.1545Y-6.5371
X13.16Y-6.32
X13.16Y-7.255
X13.1741Y-8.0759
X13.182Y-8.9365
X13.19Y-8.435
X13.195Y-6.4645
X13.195Y-7.88
X13.205Y-5.9875
X13.2075Y-5.9225
X13.215Y-6.185
X13.215Y-8.075
X13.235Y-6.435
X13.245Y-7.49
X13.25Y-10.1375
X13.2525Y-9.4875
X13.2525Y-9.645
X13.2541Y-7.5741
X13.2575Y-10.085
X13.265Y-6.0525
X13.2721Y-6.5371
X13.275Y-8.435
X13.2755Y-8.746
X13.3025Y-9.3875
X13.3075Y-6.32
X13.32Y-5.8825
X13.32Y-5.955
X13.325Y-7.61
X13.325Y-9.1225
X13.325Y-9.185
X13.3297Y-8.4701
X13.33Y-8.065
X13.3318Y-7.8682
X13.345Y-7.435
X13.3745Y-9.1305
X13.375Y-8.91
X13.375Y-10.085
X13.379Y-9.2225
X13.38Y-6.0575
X13.4009Y-6.9391
X13.403Y-8.5936
X13.435Y-7.66
X13.435Y-8.6166
X13.45Y-5.3975
X13.4525Y-5.52
X13.4531Y-8.3708
X13.455Y-7.345
X13.465Y-5.6
X13.465Y-6.3175
X13.4714Y-7.87
X13.475Y-8.065
X13.4836Y-6.9188
X13.485Y-10.1425
X13.49Y-9.645
X13.4925Y-10.0875
X13.495Y-8.3706
X13.495Y-9.525
X13.498Y-8.9185
X13.5Y-6.1825
X13.505Y-9.1125
X13.51Y-8.0945
X13.51Y-9.4
X13.5175Y-7.0245
X13.518Y-9.3115
X13.52Y-6.4325
X13.52Y-6.965
X13.535Y-8.885
X13.545Y-6.055
X13.545Y-9.2765
X13.5475Y-9.4925
X13.55Y-6.995
X13.55Y-7.185
X13.555Y-6.9444
X13.5553Y-6.905
X13.585Y-8.745
X13.585Y-9.3975
X13.5925Y-9.28
X13.61Y-6.29
X13.61Y-10.085
X13.62Y-6.805
X13.6258Y-6.8439
X13.6275Y-6.115
X13.6325Y-9.1225
X13.6325Y-9.185
X13.634Y-7.0737
X13.634Y-7.2296
X13.6341Y-7.1441
X13.635Y-7.185
X13.64Y-5.4025
X13.6575Y-5.605
X13.6605Y-7.295
X13.675Y-7.475
X13.6791Y-7.4291
X13.68Y-7.335
X13.68Y-7.385
X13.6825Y-8.915
X13.71Y-7.51
X13.71Y-9.26
X13.7225Y-9.645
X13.725Y-10.1425
X13.7275Y-10.085
X13.7325Y-8.9525
X13.735Y-7.55
X13.7375Y-6.0575
X13.745Y-6.32
X13.7615Y-9.138
X13.765Y-8.73
X13.7667Y-7.975
X13.7805Y-7.5605
X13.785Y-8.695
X13.7864Y-8.3191
X13.79Y-6.185
X13.7975Y-8.8825
X13.8Y-9.3525
X13.8Y-9.395
X13.805Y-9.225
X13.81Y-6.435
X13.815Y-7.74
X13.8225Y-6.115
X13.8365Y-8.8655
X13.8425Y-5.4025
X13.845Y-10.0825
X13.8505Y-7.7102
X13.8575Y-5.6075
X13.8593Y-7.5793
X13.86Y-7.53
X13.862Y-6.875
X13.862Y-7.035
X13.88Y-7.68
X13.8817Y-7.26
X13.8975Y-6.285
X13.9045Y-7.8863
X13.91Y-8.475
X13.9216Y-7.6814
X13.9325Y-6.06
X13.9471Y-7.9677
X13.952Y-9.1465
X13.955Y-9.5
X13.96Y-9.645
X13.96Y-10.14
X13.9605Y-7.675
X13.9888Y-7.9538
X13.995Y-8.64
X13.995Y-9.05
X13.9998Y-6.915
X14.0Y-10.065
X14.015Y-8.505
X14.0195Y-6.9511
X14.02Y-8.375
X14.025Y-6.1125
X14.0302Y-7.9402
X14.0392Y-7.085
X14.04Y-5.4025
X14.04Y-6.33
X14.04Y-7.88
X14.04Y-8.195
X14.055Y-5.61
X14.0585Y-9.3305
X14.06Y-8.765
X14.06Y-8.82
X14.075Y-6.185
X14.105Y-8.66
X14.108Y-8.426
X14.126Y-9.142
X14.135Y-6.06
X14.245Y-8.868
X14.285Y-6.6
X14.3Y-8.555
X14.305Y-7.485
X14.31Y-7.54
X14.3258Y-7.83
X14.33Y-6.735
X14.3391Y-7.3409
X14.35Y-6.775
X14.375Y-6.345
X14.475Y-7.62
X14.482Y-7.7435
X14.5725Y-5.605
X14.59Y-7.625
X14.61Y-6.345
X14.61Y-6.7
X14.615Y-6.75
X14.645Y-5.65
X14.651Y-7.7335
X14.695Y-7.38
X14.7Y-6.345
X14.76Y-5.605
X14.765Y-5.665
X14.785Y-6.94
X14.79Y-6.845
X14.795Y-7.38
X14.805Y-6.44
X14.815Y-7.91
X14.885Y-9.96
X14.915Y-6.2425
X14.915Y-7.33
X14.935Y-7.275
X14.94Y-10.16
X14.9588Y-6.5574
X14.98Y-5.6
X14.99Y-8.055
X14.995Y-6.435
X15.0325Y-10.248
X15.06Y-9.29
X15.065Y-6.76
X15.07Y-6.7
X15.07Y-7.835
X15.07Y-7.935
X15.075Y-9.68
X15.0871Y-7.3771
X15.09Y-7.21
X15.115Y-7.165
X15.15Y-5.835
X15.16Y-7.36
X15.2205Y-10.099
X15.2275Y-6.2325
X15.295Y-6.23
X15.305Y-5.835
X15.315Y-9.71
X15.705Y-10.18
X15.7365Y-6.0575
X15.7475Y-5.684
X15.773Y-9.3845
X15.8Y-10.465
X15.805Y-6.7375
X15.8075Y-6.2835
X15.817Y-6.1635
X15.827Y-9.648
X15.84Y-10.24
X15.846Y-5.5135
X15.854Y-5.987
X15.9Y-10.06
X15.9075Y-6.72
X15.9135Y-6.117
X15.9275Y-5.7415
X15.929Y-5.806
X15.9319Y-10.535
X15.948Y-6.1525
X15.965Y-9.61
X15.97Y-5.5205
X15.98Y-10.06
X15.985Y-9.05
X15.985Y-9.115
X15.9905Y-5.8595
X16.005Y-9.915
X16.005Y-10.465
X16.0075Y-6.6875
X16.0505Y-5.7165
X16.057Y-6.3185
X16.059Y-10.4495
X16.0595Y-5.9385
X16.07Y-10.235
X16.074Y-5.8005
X16.0745Y-5.754
X16.085Y-10.06
X16.1045Y-5.998
X16.1055Y-6.0775
X16.122Y-10.445
X16.1335Y-10.285
X16.1885Y-5.9935
X16.1915Y-5.884
X16.22Y-9.38
X16.242Y-6.12
T4
X8.8787Y-5.45
X9.764Y-5.45
X9.8427Y-5.45
X9.9215Y-5.45
X10.0002Y-5.45
X8.3618Y-5.449
X8.4405Y-5.449
X8.5193Y-5.449
X8.598Y-5.449
X9.323Y-5.45
X9.4017Y-5.45
X9.4805Y-5.45
X9.5592Y-5.45
X8.8Y-5.45
X8.9575Y-5.45
X9.0362Y-5.45
T5
X15.8245Y-8.2865
X15.8745Y-8.1865
X15.9245Y-8.2865
X15.9745Y-8.1865
X16.0245Y-8.2865
X16.0745Y-8.1865
X16.1245Y-8.2865
X16.1745Y-8.1865
X12.8423Y-5.49
X12.8923Y-5.59
X12.9423Y-5.49
X12.9923Y-5.59
X13.0423Y-5.49
X13.0923Y-5.59
X12.19Y-5.585
X12.24Y-5.485
X12.29Y-5.585
X12.34Y-5.485
X12.39Y-5.585
X12.44Y-5.485
X12.49Y-5.585
X12.54Y-5.485
T6
X15.1634Y-7.7472
X15.1634Y-7.9441
X15.8886Y-10.6358
X16.0855Y-10.6358
T7
X14.336Y-9.5004
X14.386Y-9.4004
X14.436Y-9.5004
X14.486Y-9.4004
X14.536Y-9.5004
X14.586Y-9.4004
X14.636Y-9.5004
X14.686Y-9.4004
X14.336Y-10.2785
X14.386Y-10.1785
X14.436Y-10.2785
X14.486Y-10.1785
X14.536Y-10.2785
X14.586Y-10.1785
X14.636Y-10.2785
X14.686Y-10.1785
T8
X11.2Y-6.97
X11.2Y-7.07
X11.3Y-6.97
X11.3Y-7.07
X11.4Y-6.97
X11.4Y-7.07
X11.5Y-6.97
X11.5Y-7.07
X11.6Y-6.97
X11.6Y-7.07
X11.7Y-6.97
X11.7Y-7.07
X11.8Y-6.97
X11.8Y-7.07
X11.9Y-6.97
X11.9Y-7.07
X12.0Y-6.97
X12.0Y-7.07
X12.1Y-6.97
X12.1Y-7.07
X7.99Y-6.0675
X7.99Y-6.1675
X7.99Y-6.2675
X7.99Y-6.3675
X7.99Y-6.4675
X7.99Y-6.5675
X7.99Y-6.6675
X7.99Y-6.7675
X7.99Y-6.8675
X7.99Y-6.9675
X7.99Y-7.0675
X7.99Y-7.1675
X7.99Y-7.2675
X7.99Y-7.3675
X7.99Y-7.4675
X7.99Y-7.5675
X7.99Y-7.6675
X7.99Y-7.7675
X7.99Y-7.8675
X7.99Y-7.9675
X8.09Y-6.0675
X8.09Y-6.1675
X8.09Y-6.2675
X8.09Y-6.3675
X8.09Y-6.4675
X8.09Y-6.5675
X8.09Y-6.6675
X8.09Y-6.7675
X8.09Y-6.8675
X8.09Y-6.9675
X8.09Y-7.0675
X8.09Y-7.1675
X8.09Y-7.2675
X8.09Y-7.3675
X8.09Y-7.4675
X8.09Y-7.5675
X8.09Y-7.6675
X8.09Y-7.7675
X8.09Y-7.8675
X8.09Y-7.9675
X7.89Y-5.248
X7.9884Y-5.248
X8.0869Y-5.248
T9
X15.8075Y-6.49
X15.8075Y-6.59
X15.9075Y-6.49
X15.9075Y-6.59
X16.0075Y-6.49
X16.0075Y-6.59
X16.1075Y-6.49
X16.1075Y-6.59
X16.2075Y-6.49
X16.2075Y-6.59
X11.2Y-9.8525
X11.2Y-9.9525
X11.3Y-9.8525
X11.3Y-9.9525
X11.4Y-9.8525
X11.4Y-9.9525
X11.5Y-9.8525
X11.5Y-9.9525
X11.6Y-9.8525
X11.6Y-9.9525
X8.4551Y-6.6669
X8.4551Y-6.7669
X8.4551Y-6.8669
X8.4551Y-6.9669
X8.4551Y-7.0669
X8.4551Y-7.1669
X8.4551Y-7.2669
X8.4551Y-7.3669
X8.4551Y-7.4669
X8.4551Y-7.5669
X8.4551Y-7.6669
X8.4551Y-7.7669
X8.4551Y-7.8669
X8.4551Y-7.9669
X8.4551Y-8.0669
X8.4551Y-8.1669
X8.4551Y-8.2669
X8.4551Y-8.3669
X8.4551Y-8.4669
X8.4551Y-8.5669
X8.5551Y-6.6669
X8.5551Y-6.7669
X8.5551Y-6.8669
X8.5551Y-6.9669
X8.5551Y-7.0669
X8.5551Y-7.1669
X8.5551Y-7.2669
X8.5551Y-7.3669
X8.5551Y-7.4669
X8.5551Y-7.5669
X8.5551Y-7.6669
X8.5551Y-7.7669
X8.5551Y-7.8669
X8.5551Y-7.9669
X8.5551Y-8.0669
X8.5551Y-8.1669
X8.5551Y-8.2669
X8.5551Y-8.3669
X8.5551Y-8.4669
X8.5551Y-8.5669
X14.09Y-6.932
X14.09Y-7.032
X14.09Y-7.132
X14.09Y-7.232
X14.09Y-7.332
X14.09Y-7.432
X14.09Y-7.532
X14.09Y-7.632
X14.09Y-7.732
X14.09Y-7.832
X14.19Y-6.932
X14.19Y-7.032
X14.19Y-7.132
X14.19Y-7.232
X14.19Y-7.332
X14.19Y-7.432
X14.19Y-7.532
X14.19Y-7.632
X14.19Y-7.732
X14.19Y-7.832
T10
X12.895Y-9.5975
X12.895Y-9.7156
X12.895Y-9.8337
X12.895Y-9.9518
X12.895Y-10.0699
X12.895Y-10.1881
T11
X12.1246Y-9.272
X12.2427Y-9.272
X12.3608Y-9.272
X12.4789Y-9.272
X12.597Y-9.272
T12
X14.9841Y-9.8128
X14.9841Y-9.99
X15.24Y-9.8128
X15.24Y-9.99
X14.9841Y-9.4128
X14.9841Y-9.59
X15.24Y-9.4128
X15.24Y-9.59
T13
X13.385Y-5.248
X13.4834Y-5.248
X13.5819Y-5.248
X13.6803Y-5.248
X13.7787Y-5.248
X13.8771Y-5.248
X13.9756Y-5.248
X14.074Y-5.248
X8.3559Y-5.248
X8.4543Y-5.248
X8.5527Y-5.248
X8.6511Y-5.248
X8.7496Y-5.248
X8.848Y-5.248
X8.9464Y-5.248
X9.0449Y-5.248
X11.9501Y-10.4995
X12.0485Y-10.4995
X12.1469Y-10.4995
X12.2454Y-10.4995
X12.3438Y-10.4995
X12.4422Y-10.4995
X12.5406Y-10.4995
X12.6391Y-10.4995
X12.7375Y-10.4995
X12.8359Y-10.4995
X9.316Y-5.248
X9.4144Y-5.248
X9.5129Y-5.248
X9.6113Y-5.248
X9.7097Y-5.248
X9.8081Y-5.248
X9.9066Y-5.248
X10.005Y-5.248
X5.9894Y-5.248
X6.0879Y-5.248
X6.1863Y-5.248
X6.2847Y-5.248
X6.3831Y-5.248
X6.4816Y-5.248
X6.58Y-5.248
X6.6784Y-5.248
X13.0852Y-10.5
X13.1836Y-10.5
X13.282Y-10.5
X13.3804Y-10.5
X13.4789Y-10.5
X13.5773Y-10.5
X13.6757Y-10.5
X13.7741Y-10.5
X13.8726Y-10.5
X13.971Y-10.5
X11.432Y-5.248
X11.5304Y-5.248
X11.6289Y-5.248
X11.7273Y-5.248
X11.8257Y-5.248
X11.9241Y-5.248
X14.311Y-5.248
X14.4094Y-5.248
X14.5079Y-5.248
X14.6063Y-5.248
X14.7047Y-5.248
X14.8031Y-5.248
X10.6819Y-5.248
X10.7803Y-5.248
X10.8787Y-5.248
X10.9771Y-5.248
X11.0756Y-5.248
X11.174Y-5.248
X6.936Y-5.248
X7.0344Y-5.248
X7.1329Y-5.248
X7.2313Y-5.248
X7.3297Y-5.248
X7.4281Y-5.248
X7.5266Y-5.248
X7.625Y-5.248
T14
X9.6605Y-9.1527
X9.6605Y-9.7535
X9.6605Y-9.9519
X9.6605Y-10.1503
X9.8081Y-9.1527
X9.9558Y-9.1527
X9.9558Y-9.7535
X9.9558Y-9.9519
X9.9558Y-10.1503
X9.0705Y-9.1527
X9.0705Y-9.7535
X9.0705Y-9.9519
X9.0705Y-10.1503
X9.2181Y-9.1527
X9.3658Y-9.1527
X9.3658Y-9.7535
X9.3658Y-9.9519
X9.3658Y-10.1503
X8.5002Y-9.1527
X8.5002Y-9.7535
X8.5002Y-9.9519
X8.5002Y-10.1503
X8.6478Y-9.1527
X8.7955Y-9.1527
X8.7955Y-9.7535
X8.7955Y-9.9519
X8.7955Y-10.1503
X7.9102Y-9.1527
X7.9102Y-9.7535
X7.9102Y-9.9519
X7.9102Y-10.1503
X8.0578Y-9.1527
X8.2055Y-9.1527
X8.2055Y-9.7535
X8.2055Y-9.9519
X8.2055Y-10.1503
T15
X5.912Y-10.452
X6.062Y-10.452
X6.212Y-10.452
X6.362Y-10.452
X8.5124Y-10.452
X8.6502Y-10.452
X8.788Y-10.452
X14.201Y-9.8705
X14.8211Y-9.8705
X7.9224Y-10.452
X8.0602Y-10.452
X8.198Y-10.452
X9.6624Y-10.452
X9.8002Y-10.452
X9.938Y-10.452
X14.201Y-10.6486
X14.821Y-10.6486
X9.0824Y-10.452
X9.2202Y-10.452
X9.358Y-10.452
T16
X6.6514Y-10.448
X6.7892Y-10.448
X6.927Y-10.448
X7.0648Y-10.448
X7.2026Y-10.448
X7.3404Y-10.448
X7.4782Y-10.448
X7.616Y-10.448
X10.7222Y-10.448
X10.86Y-10.448
X10.9978Y-10.448
X11.1356Y-10.448
X11.2734Y-10.448
X11.4112Y-10.448
X11.549Y-10.448
X11.6868Y-10.448
T17
X5.7457Y-9.6003
X5.7457Y-9.9625
X6.1357Y-9.6003
X6.1357Y-9.9625
T18
X6.1098Y-8.1594
X6.11Y-5.876
X8.039Y-5.876
X8.039Y-8.1594
X8.5059Y-6.4744
X8.5059Y-8.7579
X9.4114Y-6.4744
X9.4114Y-8.7579
T19
X5.5512Y-10.5906
X5.5906Y-5.1969
X10.3346Y-5.1575
X10.3346Y-10.5906
X15.1181Y-5.1575
X15.1181Y-10.5906
X15.9981Y-7.0875
X16.0Y-5.315
T3
G00X15.2559Y-7.7078
M15
G01X15.2835Y-7.7078
M16
G05
G00X15.2835Y-7.9834
M15
G01X15.2559Y-7.9834
M16
G05
G00X15.8493Y-10.7559
M15
G01X15.8493Y-10.7283
M16
G05
G00X16.1248Y-10.7283
M15
G01X16.1248Y-10.7559
M16
G05
T0
M30
