M48
; DRILL file {KiCad (5.1.4)-1} date 27.11.2019 14:00:43
; FORMAT={-:-/ absolute / metric / decimal}
; #@! TF.CreationDate,2019-11-27T14:00:43+00:00
; #@! TF.GenerationSoftware,Kicad,Pcbnew,(5.1.4)-1
; #@! TF.FileFunction,Plated,1,4,PTH
FMAT,2
METRIC
T1C0.400
T2C0.600
T3C0.760
T4C0.850
T5C0.900
T6C1.000
T7C1.016
T8C1.020
T9C1.070
T10C1.100
T11C1.350
T12C1.400
T13C1.600
T14C1.630
T15C1.700
T16C2.000
T17C2.800
T18C4.200
%
G90
G05
T1
X136.906Y-254.762
X137.05Y-156.35
X137.795Y-159.512
X137.922Y-254.762
X138.4Y-156.35
X138.684Y-247.777
X138.938Y-254.762
X139.8Y-156.362
X139.954Y-254.762
X141.2Y-156.362
X142.65Y-156.35
X145.542Y-176.657
X145.669Y-161.417
X145.923Y-192.532
X146.685Y-184.658
X147.066Y-161.417
X148.148Y-220.162
X148.229Y-216.545
X148.844Y-194.818
X149.225Y-179.451
X149.626Y-229.626
X149.626Y-230.8
X149.652Y-234.605
X149.677Y-235.844
X150.114Y-167.386
X150.241Y-184.277
X150.749Y-164.846
X150.749Y-194.818
X151.137Y-189.903
X151.257Y-169.291
X152.019Y-179.578
X152.527Y-194.818
X153.416Y-164.973
X153.797Y-179.578
X155.194Y-160.909
X155.194Y-176.911
X155.321Y-192.024
X156.21Y-179.578
X156.337Y-156.972
X156.591Y-187.96
X157.01Y-176.155
X157.48Y-260.477
X157.48Y-262.382
X157.734Y-195.58
X157.988Y-179.578
X158.623Y-164.846
X159.385Y-174.879
X160.02Y-140.716
X161.163Y-244.348
X161.671Y-198.247
X161.925Y-192.786
X162.56Y-167.259
X162.687Y-141.732
X162.814Y-161.798
X162.941Y-192.786
X163.195Y-143.383
X163.703Y-182.499
X163.766Y-259.143
X163.83Y-167.259
X164.084Y-161.671
X164.084Y-177.038
X165.1Y-140.589
X165.227Y-176.911
X166.274Y-140.049
X166.688Y-261.303
X166.751Y-141.986
X169.164Y-144.145
X169.418Y-244.348
X169.926Y-139.827
X170.18Y-213.36
X170.307Y-194.183
X172.339Y-151.765
X172.593Y-259.017
X173.609Y-140.716
X173.863Y-213.36
X173.99Y-194.183
X174.498Y-224.155
X174.625Y-139.319
X174.625Y-262.001
X175.895Y-198.755
X176.149Y-143.002
X176.149Y-217.932
X176.276Y-151.511
X176.657Y-222.123
X177.8Y-201.803
X177.927Y-200.279
X178.562Y-244.348
X179.07Y-142.875
X179.959Y-151.638
X180.213Y-139.319
X180.213Y-223.266
X180.721Y-197.866
X180.721Y-216.789
X180.848Y-233.87
X181.546Y-259.08
X182.118Y-235.712
X182.753Y-197.866
X182.753Y-216.662
X183.007Y-187.706
X183.007Y-206.883
X183.325Y-262.065
X184.658Y-140.716
X184.658Y-197.866
X184.658Y-216.662
X184.721Y-233.87
X185.674Y-235.712
X186.732Y-210.487
X187.089Y-191.312
X187.202Y-142.363
X187.325Y-244.348
X188.785Y-233.87
X189.421Y-235.522
X189.611Y-140.589
X189.738Y-211.582
X189.865Y-192.532
X189.992Y-215.392
X190.119Y-196.215
X190.436Y-258.953
X190.881Y-140.589
X191.071Y-261.175
X192.278Y-221.107
X192.405Y-196.342
X192.405Y-201.93
X192.405Y-215.265
X192.595Y-233.87
X193.548Y-235.585
X194.31Y-215.392
X194.437Y-196.342
X194.691Y-139.573
X196.342Y-215.392
X196.469Y-221.107
X196.596Y-196.342
X196.596Y-201.93
X198.501Y-140.589
X202.941Y-212.852
X208.915Y-144.653
X208.915Y-212.791
X209.359Y-145.923
X210.439Y-225.679
X210.693Y-143.954
X211.731Y-225.911
X212.026Y-157.988
X213.106Y-226.06
X213.36Y-147.193
X213.614Y-158.051
X213.804Y-143.383
X216.662Y-147.828
X217.932Y-150.558
X221.234Y-152.146
X221.361Y-143.383
X222.758Y-143.51
X222.758Y-152.146
X223.266Y-146.685
X224.028Y-141.605
X224.155Y-143.51
X225.298Y-139.446
X225.298Y-146.685
X225.481Y-212.441
X225.933Y-152.146
X226.441Y-148.971
X226.568Y-146.685
X226.568Y-216.916
X226.741Y-213.985
X226.949Y-139.827
X227.457Y-143.51
X227.711Y-152.273
X227.838Y-146.685
X227.838Y-154.686
X229.108Y-148.971
X229.743Y-141.605
X230.246Y-213.248
X230.759Y-146.685
X231.394Y-150.368
X231.394Y-157.099
X232.791Y-149.352
X234.696Y-155.702
X234.928Y-153.819
X234.95Y-152.781
X236.855Y-151.13
X237.49Y-154.94
X238.252Y-158.496
X240.538Y-150.241
X241.137Y-159.548
X241.427Y-146.431
X242.57Y-146.558
X242.824Y-148.971
X242.951Y-162.687
X243.459Y-147.193
X243.459Y-159.639
X243.581Y-213.248
X243.903Y-141.05
X244.094Y-143.51
X244.094Y-152.654
X244.094Y-162.687
X244.348Y-156.718
X244.348Y-157.797
X244.602Y-159.385
X245.065Y-162.927
X245.364Y-139.573
X245.364Y-146.812
X245.364Y-152.781
X245.491Y-154.178
X246.365Y-212.237
X246.634Y-146.812
X246.761Y-139.573
X247.523Y-143.764
X247.65Y-154.178
X247.904Y-146.812
X249.237Y-149.034
X249.555Y-146.621
X250.698Y-149.034
X250.761Y-146.621
X251.074Y-179.989
X253.225Y-225.175
X253.956Y-224.492
X254.508Y-223.647
X257.429Y-240.474
X257.937Y-224.826
X258.127Y-251.65
X258.255Y-242.252
X258.953Y-224.028
X258.953Y-253.047
X259.397Y-245.935
X259.461Y-241.173
X259.461Y-248.856
X260.032Y-238.061
X260.096Y-240.157
X260.223Y-255.206
X260.35Y-223.266
X260.99Y-222.498
X261.683Y-247.523
X261.874Y-221.996
X262.128Y-238.061
X262.128Y-245.554
X262.556Y-248.334
X262.652Y-246.406
X263.213Y-161.983
X263.271Y-231.477
X263.525Y-236.601
X263.715Y-248.158
X263.767Y-246.314
X263.842Y-238.061
X263.969Y-257.365
X264.604Y-249.618
X264.668Y-231.977
X264.922Y-163.322
X265.008Y-228.102
X265.557Y-236.601
X265.938Y-249.618
X266.065Y-232.474
X266.446Y-238.696
X267.272Y-233.236
X267.652Y-235.648
X267.652Y-238.76
X267.652Y-243.459
X268.161Y-252.73
X268.161Y-255.143
X269.43Y-253.365
X269.748Y-236.918
X270.32Y-254.381
X270.573Y-237.744
X271.018Y-238.823
X271.272Y-160.147
X271.335Y-150.558
X271.526Y-239.839
X271.943Y-241.109
X272.224Y-154.305
X272.478Y-242.125
X273.57Y-162.548
X273.729Y-230.886
X273.8Y-221.476
X273.812Y-154.495
X273.812Y-231.902
X274.32Y-161.734
X274.327Y-163.298
X274.955Y-145.225
X274.955Y-220.726
X274.955Y-231.902
X275.907Y-161.798
X276.098Y-224.155
X276.808Y-155.511
X277.241Y-210.693
X277.241Y-224.917
X277.368Y-153.67
X277.368Y-223.774
X277.558Y-161.481
X278.557Y-206.019
X278.633Y-182.387
X278.848Y-223.685
X278.892Y-150.495
X278.892Y-222.631
X278.955Y-160.147
X279.273Y-257.937
X280.281Y-186.792
X280.496Y-221.053
X280.502Y-223.18
X280.555Y-222.172
X280.67Y-259.143
X280.794Y-185.837
X280.924Y-155.13
X281.484Y-221.803
X281.813Y-161.417
X281.813Y-260.096
X282.534Y-189.184
X282.575Y-145.225
X282.575Y-221.553
X282.87Y-208.727
X282.892Y-260.858
X283.464Y-161.417
X283.535Y-189.483
X284.18Y-204.699
X284.353Y-261.303
X284.48Y-185.928
X284.531Y-189.983
X284.543Y-153.861
X285.178Y-161.417
X285.511Y-192.81
X285.587Y-193.948
X285.628Y-169.55
X285.813Y-155.067
X285.968Y-241.381
X286.73Y-166.888
X287.02Y-185.928
X288.544Y-166.878
X289.941Y-169.545
X290.576Y-150.622
X290.576Y-154.432
X290.581Y-201.087
X290.581Y-202.357
X290.698Y-186.832
X290.767Y-160.147
X290.794Y-190.81
X290.947Y-170.515
X291.059Y-238.577
X292.151Y-190.483
X292.224Y-238.648
X292.735Y-155.511
X292.811Y-242.131
X292.984Y-191.546
X293.086Y-192.832
X293.243Y-168.275
X293.839Y-192.139
X293.89Y-241.498
X294.055Y-165.628
X294.132Y-145.225
X294.376Y-202.961
X294.416Y-188.983
X294.64Y-169.025
X294.857Y-201.102
X295.143Y-206.644
X295.184Y-189.624
X295.357Y-198.879
X295.412Y-167.3
X295.468Y-197.885
X295.6Y-166.243
X295.68Y-200.535
X295.778Y-238.633
X296.342Y-199.385
X296.545Y-240.228
X296.799Y-153.606
X296.799Y-161.29
X297.236Y-195.885
X297.434Y-242.824
X297.805Y-204.274
X297.914Y-167.16
X298.196Y-150.622
X298.196Y-169.291
X298.26Y-160.21
X298.45Y-181.229
X300.101Y-192.227
X300.291Y-255.079
X300.355Y-165.862
X300.67Y-200.528
X300.736Y-181.229
X300.944Y-204.221
X301.117Y-201.422
X301.244Y-203.2
X301.308Y-161.353
X301.752Y-145.225
X301.976Y-190.17
X302.544Y-199.513
X302.895Y-166.37
X303.403Y-200.025
X303.46Y-181.172
X303.847Y-153.67
X304.055Y-257.365
X304.127Y-233.502
X304.165Y-206.141
X304.673Y-230.925
X304.8Y-167.12
X304.8Y-200.025
X304.815Y-185.501
X304.99Y-155.892
X305.498Y-153.416
X305.542Y-192.273
X305.689Y-160.147
X305.761Y-228.707
X306.006Y-245.427
X306.07Y-210.312
X306.197Y-200.025
X306.26Y-152.59
X306.26Y-249.873
X306.705Y-228.207
X306.768Y-162.433
X306.812Y-192.72
X306.873Y-188.983
X306.895Y-158.75
X307.404Y-149.479
X307.404Y-152.844
X307.416Y-185.542
X307.657Y-229.425
X307.813Y-209.249
X307.848Y-219.456
X307.955Y-207.101
X308.038Y-148.578
X308.102Y-162.306
X308.549Y-188.983
X308.605Y-192.756
X308.61Y-171.704
X308.636Y-229.088
X308.731Y-218.699
X308.864Y-170.688
X309.499Y-154.114
X309.499Y-201.549
X309.499Y-218.059
X309.626Y-205.359
X309.69Y-253.682
X309.88Y-164.072
X310.007Y-225.425
X310.096Y-226.759
X310.261Y-217.297
X310.388Y-170.942
X310.388Y-193.167
X310.769Y-157.29
X310.769Y-227.838
X311.023Y-211.328
X311.087Y-153.289
X311.277Y-149.352
X311.277Y-160.083
X311.337Y-171.311
X311.912Y-210.566
X312.039Y-161.417
X312.293Y-186.817
X312.356Y-238.328
X312.42Y-187.833
X312.451Y-191.601
X312.729Y-214.575
X312.789Y-159.829
X312.928Y-152.59
X312.928Y-210.566
X312.991Y-156.21
X313.055Y-158.686
X313.391Y-201.227
X313.436Y-213.868
X313.563Y-205.486
X313.654Y-188.075
X313.657Y-189.133
X313.69Y-192.101
X313.69Y-194.101
X313.817Y-184.785
X314.007Y-145.415
X314.071Y-210.693
X314.071Y-212.09
X314.123Y-160.703
X314.135Y-163.258
X314.211Y-242.252
X314.287Y-238.328
X314.833Y-222.377
X315.214Y-175.006
X315.214Y-182.245
X315.277Y-251.142
X315.277Y-252.412
X315.595Y-224.282
X315.835Y-221.716
X315.976Y-220.726
X315.982Y-175.756
X316.611Y-218.186
X316.611Y-219.186
X316.649Y-225.781
X316.674Y-156.273
X316.763Y-230.429
X316.992Y-146.875
X317.109Y-194.31
X317.119Y-195.834
X317.246Y-200.406
X317.246Y-205.74
X317.246Y-243.459
X317.293Y-208.709
X317.434Y-217.297
X317.5Y-152.082
X317.5Y-158.75
X317.627Y-161.163
X318.135Y-202.692
X318.135Y-203.835
X318.135Y-238.379
X318.135Y-240.284
X318.262Y-149.352
X318.262Y-173.355
X318.262Y-205.105
X318.366Y-188.616
X318.389Y-155.385
X318.437Y-157.516
X318.707Y-163.004
X318.749Y-208.649
X318.885Y-221.128
X318.897Y-174.244
X318.897Y-206.895
X318.897Y-219.202
X318.919Y-195.983
X319.024Y-199.263
X319.051Y-222.628
X319.087Y-256.286
X319.109Y-194.31
X319.659Y-210.82
X319.659Y-220.345
X319.722Y-255.079
X319.731Y-221.878
X319.744Y-209.282
X319.786Y-202.565
X319.824Y-246.621
X319.881Y-206.395
X319.913Y-200.025
X320.028Y-160.782
X320.409Y-219.577
X320.426Y-201.797
X320.434Y-189.738
X320.51Y-210.032
X320.697Y-200.834
X320.802Y-249.568
X320.993Y-257.62
X321.31Y-180.721
X321.31Y-183.896
X321.31Y-186.055
X321.478Y-193.38
X321.888Y-189.195
X322.414Y-188.345
X322.434Y-214.273
X322.58Y-193.421
X322.625Y-211.501
X323.279Y-160.782
X323.484Y-214.846
X323.532Y-248.666
X323.723Y-179.62
X324.104Y-193.421
X324.231Y-210.693
X324.31Y-216.151
X324.337Y-223.193
X324.505Y-214.25
X324.612Y-224.155
X324.667Y-194.402
X324.739Y-196.402
X324.858Y-179.62
X324.866Y-188.595
X324.929Y-149.352
X324.993Y-209.193
X325.394Y-165.481
X325.628Y-193.675
X325.704Y-186.563
X325.755Y-153.861
X325.755Y-224.155
X325.882Y-208.661
X326.009Y-171.12
X326.263Y-192.786
X326.384Y-189.241
X326.608Y-183.662
X326.644Y-210.693
X326.644Y-224.79
X327.025Y-156.591
X327.032Y-170.74
X327.279Y-184.404
X327.279Y-188.595
X327.596Y-227.52
X327.66Y-192.913
X327.749Y-210.731
X327.934Y-189.484
X327.934Y-214.903
X328.549Y-151.638
X328.676Y-222.155
X328.803Y-188.214
X328.803Y-210.185
X328.803Y-217.551
X328.93Y-149.098
X328.993Y-163.449
X329.434Y-214.884
X329.438Y-189.103
X329.501Y-152.4
X329.819Y-199.644
X329.946Y-181.61
X330.137Y-253.047
X330.178Y-193.062
X330.2Y-189.865
X330.327Y-221.361
X330.517Y-153.289
X330.708Y-160.528
X330.899Y-150.177
X331.101Y-220.611
X331.216Y-193.04
X331.787Y-155.13
X332.041Y-226.377
X332.232Y-219.571
X332.486Y-181.61
X332.54Y-165.49
X332.74Y-167.005
X332.803Y-146.685
X333.276Y-219.361
X333.375Y-153.733
X333.375Y-239.014
X334.0Y-214.62
X334.125Y-166.042
X334.264Y-160.528
X334.264Y-184.277
X334.623Y-205.127
X335.026Y-214.249
X335.153Y-164.199
X335.153Y-200.152
X335.28Y-227.52
X335.407Y-152.082
X335.47Y-150.431
X335.661Y-157.099
X335.661Y-205.105
X336.169Y-163.449
X336.423Y-190.246
X336.55Y-257.493
X336.613Y-240.982
X336.613Y-244.983
X336.74Y-256.159
X336.804Y-192.532
X336.931Y-153.733
X337.058Y-222.155
X337.111Y-166.042
X337.185Y-214.249
X337.185Y-228.854
X337.883Y-238.442
X338.01Y-160.528
X338.328Y-149.415
X338.328Y-151.257
X338.455Y-193.294
X338.455Y-231.712
X338.455Y-233.299
X338.574Y-215.141
X338.582Y-204.851
X338.629Y-199.851
X339.725Y-226.314
X339.725Y-256.159
X339.852Y-153.861
X340.36Y-176.276
X340.437Y-218.277
X341.249Y-194.564
X341.249Y-218.861
X341.63Y-137.096
X341.693Y-140.208
X341.709Y-212.618
X342.011Y-142.24
X342.011Y-160.464
X342.174Y-199.898
X342.265Y-204.851
X342.483Y-175.736
X342.519Y-257.62
X342.646Y-244.983
X342.709Y-256.222
X342.773Y-212.613
X342.773Y-241.935
X342.9Y-157.035
X343.027Y-227.584
X343.027Y-231.457
X343.154Y-205.601
X343.154Y-238.76
X343.345Y-178.423
X343.357Y-236.512
X343.408Y-163.385
X343.408Y-176.911
X343.789Y-225.679
X344.043Y-153.797
X344.043Y-235.623
X344.106Y-241.109
X344.17Y-177.673
X344.17Y-182.499
X344.296Y-176.387
X344.304Y-175.387
X345.059Y-222.123
X345.059Y-238.696
X345.25Y-235.712
X345.694Y-159.766
X345.694Y-256.159
X345.948Y-172.847
X346.095Y-173.836
X346.138Y-155.321
X346.265Y-231.712
X346.265Y-233.299
X346.304Y-179.673
X346.304Y-183.631
X346.307Y-181.461
X346.329Y-182.499
X346.456Y-137.224
X346.9Y-142.367
X346.976Y-185.293
X347.345Y-189.865
X347.45Y-188.7
X347.472Y-186.309
X347.472Y-187.579
X347.535Y-226.441
X348.234Y-190.754
X348.234Y-235.204
X348.551Y-244.983
X348.615Y-257.62
X348.678Y-256.159
X348.805Y-227.393
X348.869Y-191.77
X348.933Y-153.861
X349.123Y-160.528
X349.631Y-221.742
X349.675Y-202.565
X350.025Y-192.038
X350.139Y-220.853
X350.175Y-211.306
X350.266Y-157.099
X350.457Y-225.615
X350.52Y-237.553
X350.52Y-238.633
X350.647Y-234.315
X350.774Y-163.449
X350.901Y-196.596
X351.091Y-155.321
X351.599Y-137.224
X351.663Y-256.096
X351.802Y-195.84
X351.981Y-142.43
X352.025Y-192.513
X352.044Y-191.262
X352.096Y-174.625
X352.096Y-178.689
X352.552Y-195.072
X352.596Y-184.404
X352.996Y-159.639
X353.175Y-200.313
X353.314Y-215.265
X353.609Y-195.107
X353.885Y-153.924
X354.256Y-202.378
X354.457Y-241.3
X354.584Y-244.983
X354.584Y-257.556
X354.596Y-194.945
X355.315Y-202.026
X355.473Y-219.456
X355.473Y-229.87
X355.596Y-175.641
X355.6Y-255.651
X355.981Y-216.027
X356.096Y-176.559
X356.108Y-212.725
X356.235Y-155.257
X356.367Y-201.681
X356.596Y-179.959
X356.616Y-137.224
X356.616Y-160.782
X356.616Y-200.152
X356.616Y-208.153
X356.997Y-142.494
X357.124Y-222.631
X357.124Y-224.028
X357.505Y-157.099
X358.267Y-219.964
X358.343Y-214.02
X359.029Y-153.924
X361.442Y-248.92
X361.823Y-225.246
X362.839Y-231.648
X362.839Y-233.68
X363.22Y-217.297
X363.347Y-190.119
X363.474Y-191.516
X363.875Y-198.882
X363.982Y-171.069
X364.214Y-186.458
X364.49Y-172.085
X365.125Y-161.163
X367.665Y-193.548
X369.062Y-250.19
X370.142Y-142.367
X370.586Y-193.675
X371.094Y-161.163
X371.094Y-170.18
X371.221Y-171.45
X371.983Y-143.51
X373.253Y-187.452
X373.38Y-161.163
X374.904Y-142.367
X375.031Y-143.891
X375.539Y-176.276
X375.666Y-173.863
X375.793Y-187.452
X376.047Y-163.576
X376.301Y-200.914
X377.698Y-252.222
X378.841Y-158.559
X378.841Y-186.182
X379.349Y-184.785
X379.476Y-258.064
X379.954Y-166.558
X380.492Y-142.24
X380.746Y-204.597
X380.873Y-163.449
X382.524Y-235.966
X382.651Y-171.704
X382.778Y-170.18
X382.778Y-199.009
X382.778Y-201.549
X382.905Y-245.872
X383.213Y-187.379
X383.286Y-183.134
X383.921Y-181.991
X384.81Y-148.209
X385.064Y-186.944
X386.334Y-258.064
X386.779Y-158.305
X388.493Y-158.242
X388.747Y-148.209
X389.001Y-246.634
X398.907Y-258.572
X399.707Y-153.861
X399.986Y-144.374
X401.32Y-265.811
X401.447Y-171.132
X401.51Y-159.601
X401.752Y-156.553
X402.082Y-244.348
X402.336Y-260.096
X402.488Y-140.043
X402.692Y-152.07
X402.971Y-240.157
X403.86Y-255.524
X404.05Y-170.688
X404.203Y-155.372
X404.558Y-145.834
X404.597Y-147.472
X404.671Y-267.589
X405.079Y-156.273
X405.511Y-244.094
X405.638Y-140.221
X405.892Y-255.524
X406.019Y-229.87
X406.019Y-231.521
X406.159Y-148.831
X406.527Y-251.841
X406.527Y-265.811
X406.59Y-169.862
X407.683Y-145.199
X407.848Y-160.49
X407.911Y-150.838
X408.178Y-259.969
X408.28Y-147.333
X408.292Y-146.152
X408.559Y-255.524
X409.054Y-152.349
X409.08Y-154.368
X410.845Y-247.269
X411.188Y-152.235
X411.264Y-149.454
X411.988Y-238.252
X411.988Y-244.602
X412.547Y-155.448
T3
X326.195Y-139.446
X327.464Y-141.986
X328.734Y-139.446
X330.005Y-141.986
X331.274Y-139.446
X332.544Y-141.986
X309.626Y-141.859
X310.896Y-139.319
X312.166Y-141.859
X313.436Y-139.319
X314.706Y-141.859
X315.976Y-139.319
X317.246Y-141.859
X318.516Y-139.319
T4
X385.15Y-196.779
X385.15Y-201.779
X403.571Y-270.15
X408.571Y-270.15
T5
X363.862Y-257.294
X365.122Y-254.754
X366.402Y-257.294
X367.662Y-254.754
X368.942Y-257.294
X370.202Y-254.754
X371.482Y-257.294
X372.742Y-254.754
X401.584Y-213.614
X402.844Y-211.074
X404.124Y-213.614
X405.384Y-211.074
X406.664Y-213.614
X407.924Y-211.074
X409.204Y-213.614
X410.464Y-211.074
T6
X206.709Y-133.477
X209.209Y-133.477
X211.709Y-133.477
X284.48Y-177.038
X284.48Y-179.578
X287.02Y-177.038
X287.02Y-179.578
X289.56Y-177.038
X289.56Y-179.578
X292.1Y-177.038
X292.1Y-179.578
X294.64Y-177.038
X294.64Y-179.578
X297.18Y-177.038
X297.18Y-179.578
X299.72Y-177.038
X299.72Y-179.578
X302.26Y-177.038
X302.26Y-179.578
X304.8Y-177.038
X304.8Y-179.578
X307.34Y-177.038
X307.34Y-179.578
X202.946Y-154.114
X202.946Y-156.654
X202.946Y-159.195
X202.946Y-161.734
X202.946Y-164.274
X202.946Y-166.814
X202.946Y-169.355
X202.946Y-171.894
X202.946Y-174.434
X202.946Y-176.975
X202.946Y-179.514
X202.946Y-182.054
X202.946Y-184.594
X202.946Y-187.135
X202.946Y-189.674
X202.946Y-192.214
X202.946Y-194.754
X202.946Y-197.294
X202.946Y-199.834
X202.946Y-202.374
X205.486Y-154.114
X205.486Y-156.654
X205.486Y-159.195
X205.486Y-161.734
X205.486Y-164.274
X205.486Y-166.814
X205.486Y-169.355
X205.486Y-171.894
X205.486Y-174.434
X205.486Y-176.975
X205.486Y-179.514
X205.486Y-182.054
X205.486Y-184.594
X205.486Y-187.135
X205.486Y-189.674
X205.486Y-192.214
X205.486Y-194.754
X205.486Y-197.294
X205.486Y-199.834
X205.486Y-202.374
T7
X401.51Y-164.846
X401.51Y-167.386
X404.05Y-164.846
X404.05Y-167.386
X406.59Y-164.846
X406.59Y-167.386
X409.13Y-164.846
X409.13Y-167.386
X411.671Y-164.846
X411.671Y-167.386
X357.886Y-176.073
X357.886Y-178.613
X357.886Y-181.153
X357.886Y-183.693
X357.886Y-186.233
X357.886Y-188.773
X357.886Y-191.313
X357.886Y-193.853
X357.886Y-196.393
X357.886Y-198.933
X360.426Y-176.073
X360.426Y-178.613
X360.426Y-181.153
X360.426Y-183.693
X360.426Y-186.233
X360.426Y-188.773
X360.426Y-191.313
X360.426Y-193.853
X360.426Y-196.393
X360.426Y-198.933
X284.48Y-250.254
X284.48Y-252.793
X287.02Y-250.254
X287.02Y-252.793
X289.56Y-250.254
X289.56Y-252.793
X292.1Y-250.254
X292.1Y-252.793
X294.64Y-250.254
X294.64Y-252.793
X214.76Y-169.34
X214.76Y-171.88
X214.76Y-174.42
X214.76Y-176.96
X214.76Y-179.5
X214.76Y-182.04
X214.76Y-184.58
X214.76Y-187.12
X214.76Y-189.66
X214.76Y-192.2
X214.76Y-194.74
X214.76Y-197.28
X214.76Y-199.82
X214.76Y-202.36
X214.76Y-204.9
X214.76Y-207.44
X214.76Y-209.98
X214.76Y-212.52
X214.76Y-215.06
X214.76Y-217.6
X217.3Y-169.34
X217.3Y-171.88
X217.3Y-174.42
X217.3Y-176.96
X217.3Y-179.5
X217.3Y-182.04
X217.3Y-184.58
X217.3Y-187.12
X217.3Y-189.66
X217.3Y-192.2
X217.3Y-194.74
X217.3Y-197.28
X217.3Y-199.82
X217.3Y-202.36
X217.3Y-204.9
X217.3Y-207.44
X217.3Y-209.98
X217.3Y-212.52
X217.3Y-215.06
X217.3Y-217.6
T8
X361.677Y-268.554
X364.217Y-268.554
X372.387Y-268.554
X374.927Y-268.554
X327.533Y-243.776
X327.533Y-246.776
X327.533Y-249.776
X327.533Y-252.776
X327.533Y-255.776
X327.533Y-258.776
X399.399Y-199.814
X401.939Y-199.814
X410.109Y-199.814
X412.649Y-199.814
T9
X361.253Y-240.284
X364.253Y-240.284
X367.253Y-240.284
X370.253Y-240.284
X373.253Y-240.284
T10
X380.596Y-249.246
X380.596Y-253.746
X387.096Y-249.246
X387.096Y-253.746
X380.596Y-239.086
X380.596Y-243.586
X387.096Y-239.086
X387.096Y-243.586
T11
X333.502Y-266.446
X336.002Y-266.446
X338.502Y-266.446
X341.002Y-266.446
X343.502Y-266.446
X346.002Y-266.446
X348.502Y-266.446
X351.002Y-266.446
X353.502Y-266.446
X356.002Y-266.446
X182.144Y-133.477
X184.644Y-133.477
X187.144Y-133.477
X189.644Y-133.477
X192.144Y-133.477
X194.644Y-133.477
X197.144Y-133.477
X199.644Y-133.477
X238.325Y-133.477
X240.825Y-133.477
X243.325Y-133.477
X245.825Y-133.477
X248.325Y-133.477
X250.825Y-133.477
X218.767Y-133.477
X221.267Y-133.477
X223.767Y-133.477
X226.267Y-133.477
X228.767Y-133.477
X231.267Y-133.477
X304.285Y-266.446
X306.785Y-266.446
X309.285Y-266.446
X311.785Y-266.446
X314.285Y-266.446
X316.785Y-266.446
X319.285Y-266.446
X321.785Y-266.446
X324.285Y-266.446
X326.785Y-266.446
X157.56Y-133.477
X160.06Y-133.477
X162.56Y-133.477
X165.06Y-133.477
X167.56Y-133.477
X170.06Y-133.477
X172.56Y-133.477
X175.06Y-133.477
X339.979Y-133.477
X342.479Y-133.477
X344.979Y-133.477
X347.479Y-133.477
X349.979Y-133.477
X352.479Y-133.477
X354.979Y-133.477
X357.479Y-133.477
X271.344Y-133.477
X273.844Y-133.477
X276.344Y-133.477
X278.844Y-133.477
X281.344Y-133.477
X283.844Y-133.477
X290.394Y-133.35
X292.894Y-133.35
X295.394Y-133.35
X297.894Y-133.35
X300.394Y-133.35
X302.894Y-133.35
X363.5Y-133.477
X366.0Y-133.477
X368.5Y-133.477
X371.0Y-133.477
X373.5Y-133.477
X376.0Y-133.477
T12
X200.918Y-232.478
X200.918Y-247.738
X200.918Y-252.778
X200.918Y-257.818
X204.668Y-232.478
X208.418Y-232.478
X208.418Y-247.738
X208.418Y-252.778
X208.418Y-257.818
X245.376Y-232.478
X245.376Y-247.738
X245.376Y-252.778
X245.376Y-257.818
X249.126Y-232.478
X252.876Y-232.478
X252.876Y-247.738
X252.876Y-252.778
X252.876Y-257.818
X230.391Y-232.478
X230.391Y-247.738
X230.391Y-252.778
X230.391Y-257.818
X234.141Y-232.478
X237.891Y-232.478
X237.891Y-247.738
X237.891Y-252.778
X237.891Y-257.818
X215.904Y-232.478
X215.904Y-247.738
X215.904Y-252.778
X215.904Y-257.818
X219.654Y-232.478
X223.404Y-232.478
X223.404Y-247.738
X223.404Y-252.778
X223.404Y-257.818
T13
X230.708Y-265.438
X234.208Y-265.438
X237.708Y-265.438
X150.162Y-265.184
X153.972Y-265.184
X157.782Y-265.184
X161.592Y-265.184
X245.44Y-265.438
X248.94Y-265.438
X252.44Y-265.438
X201.236Y-265.438
X204.736Y-265.438
X208.236Y-265.438
X216.222Y-265.438
X219.722Y-265.438
X223.222Y-265.438
T14
X360.557Y-260.604
X376.047Y-260.604
X398.279Y-207.764
X413.769Y-207.764
T15
X272.344Y-265.303
X275.844Y-265.303
X279.344Y-265.303
X282.844Y-265.303
X286.344Y-265.303
X289.844Y-265.303
X293.344Y-265.303
X296.844Y-265.303
X168.958Y-265.184
X172.458Y-265.184
X175.958Y-265.184
X179.458Y-265.184
X182.958Y-265.184
X186.458Y-265.184
X189.958Y-265.184
X193.458Y-265.184
T16
X145.94Y-243.848
X145.94Y-253.048
X155.846Y-243.848
X155.846Y-253.048
T17
X155.19Y-207.25
X155.194Y-149.25
X204.19Y-149.25
X204.19Y-207.25
X216.05Y-164.45
X216.05Y-222.45
X239.05Y-164.45
X239.05Y-222.45
T18
X141.0Y-269.0
X142.0Y-132.0
X262.5Y-131.0
X262.5Y-269.0
X384.0Y-131.0
X384.0Y-269.0
X406.352Y-180.022
X406.4Y-135.001
T2
G00X387.5Y-195.779
M15
G01X388.2Y-195.779
M16
G05
G00X388.2Y-202.779
M15
G01X387.5Y-202.779
M16
G05
G00X402.571Y-273.2
M15
G01X402.571Y-272.5
M16
G05
G00X409.571Y-272.5
M15
G01X409.571Y-273.2
M16
G05
T0
M30
